<svg width="28" height="28" viewBox="0 0 28 28" fill="none" xmlns="http://www.w3.org/2000/svg">
<rect width="28" height="28" rx="14" fill="#508B26" fill-opacity="0.2"/>
<path d="M20.0001 13.9998C20.0001 10.6861 17.3138 7.99984 14.0001 7.99984C10.6864 7.99984 8.00008 10.6861 8.00008 13.9998C8.00008 17.3135 10.6864 19.9998 14.0001 19.9998C17.3138 19.9998 20.0001 17.3135 20.0001 13.9998ZM15.5287 12.1951C15.7891 11.9348 16.2111 11.9348 16.4714 12.1951C16.7318 12.4555 16.7318 12.8775 16.4714 13.1379L13.8048 15.8045C13.5444 16.0649 13.1224 16.0649 12.8621 15.8045L11.5287 14.4712L11.4828 14.4207C11.2692 14.1589 11.2846 13.7726 11.5287 13.5285C11.7728 13.2844 12.1591 13.269 12.421 13.4826L12.4714 13.5285L13.3334 14.3905L15.5287 12.1951ZM21.3334 13.9998C21.3334 18.0499 18.0502 21.3332 14.0001 21.3332C9.94999 21.3332 6.66675 18.0499 6.66675 13.9998C6.66675 9.94975 9.94999 6.6665 14.0001 6.6665C18.0502 6.6665 21.3334 9.94975 21.3334 13.9998Z" fill="#508B26"/>
</svg>
